<svg enable-background="new 0 0 225 225" viewBox="0 0 225 225" xmlns="http://www.w3.org/2000/svg"><path d="m191.4 59.9h-157.8c-4 0-7.2 3.2-7.2 7.2v107.6h172.2v-107.6c0-4-3.2-7.2-7.2-7.2" fill="#11171e"/><path d="m223.7 194.5c0-.5-.2-1.1-.7-1.5l-24.4-18.3v-107.6c0-4-3.2-7.2-7.2-7.2h-157.8c-4 0-7.2 3.2-7.2 7.2v107.6l-24.4 18.3c-.5.4-.7 1-.7 1.5v7.1c0 .9.7 1.7 1.8 1.7h218.9c1.1 0 1.8-.8 1.8-1.7v-7.1m-196.5-127.4c0-3.5 2.8-6.3 6.3-6.3h157.9c3.5 0 6.3 2.8 6.3 6.3v106.7h-170.5z" fill="#eee"/><path d="m223.7 194.5c0 .9-.7 1.7-1.8 1.7h-218.8c-1.1 0-1.8-.8-1.8-1.7v7.1c0 .9.7 1.7 1.8 1.7h218.9c1.1 0 1.8-.8 1.8-1.7v-7.1z" fill="#eaeaea"/><path d="m191.4 67.1h-157.8v100.4h157.8z" fill="#303030"/><path d="m193.2 176.5h-161.4l-9 7.2h179.4z" fill="#c5c5c5"/><path d="m138.2 187.3h-51.4l-1.8 5.4h55z" fill="#d9d9d9"/><path d="m56.6 40.9c20.9 0 39.8-7.4 54.3-19.3 14.4 12 33.4 19.3 54.3 19.3v37.8c0 34-22.4 63.1-54.3 75.4-31.8-12.3-54.3-41.4-54.3-75.4z" fill="#09a858"/><path d="m110.9 57.8c-6.6 0-12.1 5.4-12.1 12.1v6h12.1zm0-36.2c-14.4 12-33.4 19.3-54.3 19.3v37.8c0 34 22.4 63.1 54.3 75.4v-36h-19.1c-2.8 0-5-2.3-5-5v-32.2c0-2.8 2.3-5 5-5h1v-6c0-10 8.1-18.1 18.1-18.1z" fill="#0bb55c"/><path d="m98.8 69.8c0-6.6 5.4-12.1 12.1-12.1 6.6 0 12.1 5.4 12.1 12.1v18.1h6v-18.1c0-10-8.1-18.1-18.1-18.1s-18.1 8.1-18.1 18.1v18.1h6z" fill="#eee"/><path d="m130 118h-38.2c-2.8 0-5-2.3-5-5v-32.1c0-2.8 2.3-5 5-5h38.2c2.8 0 5 2.3 5 5v32.1c0 2.8-2.3 5-5 5" fill="#212121"/><ellipse cx="110.9" cy="93.9" fill="#eee" rx="6" ry="6"/><path d="m107.9 93.9h6v12.1h-6z" fill="#eee"/><g fill="#fff"><path d="m92.5 90c-1.6 0-2.8 1.3-2.8 2.8v16.7c0 1.6 1.3 2.8 2.8 2.8 1.6 0 2.8-1.3 2.8-2.8v-16.7c0-1.5-1.3-2.8-2.8-2.8" opacity=".12"/><path d="m92.5 81.5c-1.6 0-2.8 1.3-2.8 2.8 0 1.6 1.3 2.8 2.8 2.8 1.6 0 2.8-1.3 2.8-2.8s-1.3-2.8-2.8-2.8" opacity=".12"/></g></svg>